<?xml version="1.0" encoding="UTF-8"?>
<svg id="Layer_1" data-name="Layer 1" xmlns="http://www.w3.org/2000/svg" viewBox="0 0 1080 1350">
  <defs>
    <style>
      .cls-1 {
        fill: #db1f2d;
      }

      .cls-2 {
        fill: #231f20;
      }

      .cls-3 {
        fill: #fff;
      }
    </style>
  </defs>
  <path class="cls-3" d="M540,419c-105.86,0-192,86.74-192,193.39,0,151.53,173.95,307.99,181.35,314.56,3.05,2.71,6.85,4.05,10.65,4.05s7.59-1.34,10.65-4.03c7.4-6.59,181.35-163.05,181.35-314.58,0-106.65-86.14-193.39-192-193.39h0Z"/>
  <g>
    <path class="cls-1" d="M677.95,701.25c0,13.39-10.89,24.24-24.33,24.24s-24.32-10.85-24.32-24.24,10.89-24.24,24.32-24.24,24.33,10.85,24.33,24.24"/>
    <path class="cls-2" d="M619.49,637.81c-6.54-8.5-15.89-14.52-28.06-18.05,8.63-3.89,15.46-9.72,20.5-17.51,5.04-7.78,7.56-16.33,7.56-25.66,0-8.59-2.04-16.35-6.13-23.27-4.09-6.92-9.19-12.47-15.32-16.63-6.13-4.16-13.07-6.9-20.84-8.21-7.76-1.31-19.55-1.97-35.34-1.97h-79.81v198.98h67.96c25.69-.18,41.9-.63,48.62-1.35,10.71-1.18,19.73-4.32,27.03-9.43,7.31-5.11,13.08-11.95,17.3-20.49,4.22-8.55,6.33-17.35,6.33-26.4,0-11.49-3.27-21.49-9.8-30"/>
  </g>
</svg>