<?xml version="1.0" encoding="UTF-8"?>
<svg xmlns="http://www.w3.org/2000/svg" width="119" height="35" viewBox="0 0 119 35" fill="none">
  <g clip-path="url(#clip0_1_2)">
    <mask id="mask0_1_2" style="mask-type:luminance" maskUnits="userSpaceOnUse" x="0" y="0" width="119" height="35">
      <path d="M0 -2.30449e-07H119V35H0V-2.30449e-07Z" fill="white"></path>
    </mask>
    <g mask="url(#mask0_1_2)">
      <path d="M10.7753 26.0391C9.61366 26.0391 8.52154 25.8216 7.49988 25.3876C6.47926 24.9515 5.58382 24.3551 4.81466 23.5952C4.04649 22.8363 3.4417 21.9517 3.00132 20.9425C2.56095 19.9342 2.34174 18.8553 2.34174 17.7078V12.1761H0V7.4449H2.34174V-1.01869e-05H7.13094V7.4449H14.4195V12.1761H7.13094V17.7078C7.13094 18.2066 7.22392 18.6726 7.41185 19.1076C7.59972 19.5426 7.85804 19.9226 8.18688 20.2465C8.51566 20.5713 8.90321 20.8294 9.34946 21.0208C9.79467 21.2122 10.2703 21.3079 10.7753 21.3079H14.4195V26.0391H10.7753Z" fill="black"></path>
      <path d="M21.921 26.0391H17.1141V-1.01869e-05H21.921V8.22693C22.4964 7.79866 23.0884 7.49418 23.699 7.3144C24.3097 7.13455 24.9321 7.04469 25.5652 7.04469C26.7278 7.04469 27.8189 7.26215 28.8405 7.69719C29.8622 8.13223 30.7508 8.72964 31.5082 9.48851C32.2656 10.2484 32.8645 11.1349 33.3039 12.15C33.7443 13.1651 33.9645 14.2459 33.9645 15.3943V26.0391H29.1224V15.3943H29.1576C29.1576 14.9072 29.0637 14.446 28.8758 14.011C28.6879 13.5759 28.4295 13.1969 28.1007 12.8721C27.7719 12.5473 27.3903 12.2921 26.9568 12.1065C26.5223 11.9209 26.0584 11.8281 25.5652 11.8281C25.0612 11.8281 24.5857 11.9209 24.1394 12.1065C23.6932 12.2921 23.3056 12.5473 22.9768 12.8721C22.6481 13.1969 22.3907 13.5759 22.2028 14.011C22.0149 14.446 21.921 14.9072 21.921 15.3943V26.0391Z" fill="black"></path>
      <path d="M42.2223 26.0391H37.3802V12.1935C37.3802 9.55135 39.5478 7.41007 42.2223 7.41007V26.0391Z" fill="black"></path>
      <path d="M50.6916 26.0391H45.8848V7.41007C46.6226 7.41007 47.3243 7.72719 47.8077 8.27822L48.6317 9.21881C49.4057 8.52283 50.2835 7.98722 51.2641 7.61017C52.2436 7.23319 53.2682 7.04469 54.3358 7.04469C55.4867 7.04469 56.5719 7.26215 57.5936 7.69719C58.6152 8.13223 59.5067 8.72964 60.2701 9.48851C61.0333 10.2484 61.6341 11.1349 62.0745 12.15C62.5149 13.1651 62.7351 14.2459 62.7351 15.3943V26.0391H57.9283V15.3943C57.9283 14.9072 57.8343 14.446 57.6464 14.011C57.4585 13.5759 57.2002 13.1969 56.8714 12.8721C56.5426 12.5473 56.1609 12.2921 55.7274 12.1065C55.2929 11.9209 54.829 11.8281 54.3358 11.8281C53.8319 11.8281 53.3563 11.9209 52.9101 12.1065C52.4638 12.2921 52.0763 12.5473 51.7475 12.8721C51.4187 13.1969 51.1613 13.5759 50.9734 14.011C50.7855 14.446 50.6916 14.9072 50.6916 15.3943V26.0391Z" fill="black"></path>
      <path d="M70.9928 26.0391H66.1508V-1.01869e-05H70.9928V16.4201L78.159 7.4449H83.6881L77.4368 15.2029L83.6881 26.0391H78.159L74.3386 19.2729L70.9928 23.6561V26.0391Z" fill="black"></path>
      <path d="M119 22.8478C119 24.5986 117.558 26.0178 115.779 26.0178C114.001 26.0178 112.56 24.5986 112.56 22.8478C112.56 21.0971 114.001 19.6779 115.779 19.6779C117.558 19.6779 119 21.0971 119 22.8478Z" fill="#DC303F"></path>
      <path d="M111.262 14.5532C110.397 13.4415 109.159 12.6546 107.548 12.1925C108.69 11.684 109.594 10.9212 110.262 9.90325C110.928 8.88622 111.262 7.76772 111.262 6.54865C111.262 5.42531 110.992 4.41028 110.451 3.50537C109.909 2.60051 109.234 1.87545 108.423 1.33119C107.612 0.786878 106.693 0.429181 105.665 0.257137C104.638 0.0859991 103.078 8.0229e-06 100.988 8.0229e-06H90.4238V26.0178H99.419C102.82 25.9946 104.965 25.9356 105.854 25.8409C107.272 25.6872 108.465 25.2764 109.432 24.6074C110.4 23.9393 111.163 23.0451 111.722 21.9276C112.281 20.809 112.56 19.6586 112.56 18.4753C112.56 16.973 112.127 15.665 111.262 14.5532Z" fill="black"></path>
      <path d="M7.63777 35C7.1944 35 6.78573 34.9275 6.41171 34.7824C6.0377 34.6374 5.71351 34.4321 5.43921 34.1666C5.16491 33.901 4.95005 33.5904 4.79499 33.2346C4.63981 32.8787 4.56226 32.4872 4.56226 32.0602C4.56226 31.6333 4.63981 31.2419 4.79499 30.886C4.95005 30.5302 5.16619 30.2196 5.44331 29.954C5.72036 29.6885 6.04596 29.4833 6.42004 29.3381C6.79406 29.1932 7.20266 29.1205 7.64609 29.1205C8.09492 29.1205 8.50909 29.1958 8.88874 29.3464C9.26827 29.497 9.59111 29.72 9.85714 30.0156L9.31687 30.5329C9.09515 30.303 8.84577 30.132 8.56871 30.0197C8.2916 29.9075 7.9952 29.8514 7.67933 29.8514C7.35233 29.8514 7.04889 29.9061 6.76914 30.0156C6.48927 30.1252 6.24674 30.2784 6.04186 30.4754C5.83673 30.6725 5.67739 30.9065 5.5639 31.1775C5.45023 31.4486 5.39348 31.7428 5.39348 32.0602C5.39348 32.3778 5.45023 32.672 5.5639 32.943C5.67739 33.214 5.83673 33.448 6.04186 33.6451C6.24674 33.8421 6.48927 33.9955 6.76914 34.1049C7.04889 34.2145 7.35233 34.2692 7.67933 34.2692C7.9952 34.2692 8.2916 34.2131 8.56871 34.1008C8.84577 33.9887 9.09515 33.8149 9.31687 33.5794L9.85714 34.0967C9.59111 34.3924 9.26827 34.6168 8.88874 34.7701C8.50909 34.9234 8.0921 35 7.63777 35Z" fill="#231F20"></path>
      <path d="M16.5982 34.9343L15.1187 32.8486H16.0081L17.5042 34.9343H16.5982ZM13.5393 32.8897L13.1653 32.4873H14.9524C15.4844 32.4873 15.8875 32.3737 16.1618 32.1465C16.4361 31.9194 16.5732 31.6005 16.5732 31.1898C16.5732 30.7792 16.4361 30.4619 16.1618 30.2373C15.8875 30.0129 15.4844 29.9006 14.9524 29.9006H13.1653L13.5393 29.49V32.8897ZM12.7081 34.9343V29.1862H14.9773C15.4871 29.1862 15.9221 29.2657 16.2824 29.4243C16.6425 29.5832 16.9195 29.8131 17.1136 30.1141C17.3074 30.4153 17.4045 30.7739 17.4045 31.1898C17.4045 31.606 17.3074 31.9632 17.1136 32.2614C16.9195 32.5599 16.6425 32.7884 16.2824 32.9471C15.9221 33.106 15.4871 33.1853 14.9773 33.1853H13.1653L13.5393 32.8075V34.9343H12.7081Z" fill="#231F20"></path>
      <path d="M21.1699 31.6661H24.1623V32.3641H21.1699V31.6661ZM21.2447 34.2199H24.6361V34.9343H20.4135V29.1862H24.5197V29.9006H21.2447V34.2199Z" fill="#231F20"></path>
      <path d="M27.8862 33.4973L28.1106 32.8404H31.3856L31.6267 33.4973H27.8862ZM26.764 34.9343L29.3991 29.1862H30.222L32.8652 34.9343H31.9924L29.6401 29.6461H29.9726L27.6202 34.9343H26.764Z" fill="#231F20"></path>
      <path d="M36.2566 34.9343V29.9006H34.2616V29.1862H39.0744V29.9006H37.0795V34.9343H36.2566Z" fill="#231F20"></path>
      <path d="M41.6427 29.1862H42.4739V34.9343H41.6427V29.1862Z" fill="#231F20"></path>
      <path d="M47.5029 34.9343L44.9427 29.1862H45.8405L48.1928 34.4909H47.6775L50.0465 29.1862H50.8777L48.3258 34.9343H47.5029Z" fill="#231F20"></path>
      <path d="M54.0279 31.6661H57.0203V32.3641H54.0279V31.6661ZM54.1027 34.2199H57.4941V34.9343H53.2715V29.1862H57.3777V29.9006H54.1027V34.2199Z" fill="#231F20"></path>
      <path d="M64.6343 33.4973L64.8587 32.8404H68.1337L68.3747 33.4973H64.6343ZM63.5121 34.9343L66.1471 29.1862H66.97L69.6133 34.9343H68.7405L66.3882 29.6461H66.7206L64.3683 34.9343H63.5121Z" fill="#231F20"></path>
      <path d="M76.0801 34.1624V32.0274H76.878V34.2692L76.0801 34.1624ZM74.6753 35C74.2264 35 73.8135 34.9275 73.4368 34.7824C73.0598 34.6374 72.733 34.4321 72.4559 34.1665C72.1788 33.9011 71.9626 33.5905 71.8076 33.2345C71.6523 32.8787 71.5748 32.4873 71.5748 32.0603C71.5748 31.6333 71.6523 31.2419 71.8076 30.886C71.9626 30.5303 72.1802 30.2196 72.4601 29.954C72.7399 29.6885 73.0681 29.4832 73.4451 29.3382C73.8219 29.1932 74.2375 29.1206 74.6919 29.1206C75.1518 29.1206 75.573 29.1945 75.9554 29.3422C76.3378 29.4901 76.662 29.7118 76.9279 30.0073L76.4126 30.5165C76.1742 30.2866 75.9151 30.1183 75.6353 30.0115C75.3555 29.9047 75.0521 29.8514 74.7251 29.8514C74.3927 29.8514 74.0837 29.9061 73.7984 30.0156C73.5129 30.1251 73.2664 30.2784 73.0585 30.4755C72.8508 30.6725 72.69 30.9066 72.5765 31.1775C72.4628 31.4485 72.4061 31.7429 72.4061 32.0603C72.4061 32.3723 72.4628 32.6639 72.5765 32.9348C72.69 33.2058 72.8508 33.4412 73.0585 33.641C73.2664 33.8409 73.5116 33.9955 73.7942 34.105C74.0768 34.2146 74.3844 34.2692 74.7169 34.2692C75.0272 34.2692 75.325 34.2213 75.6104 34.1255C75.8958 34.0297 76.1603 33.8696 76.4042 33.6451L76.878 34.2692C76.5898 34.5101 76.2532 34.692 75.8681 34.8152C75.4829 34.9384 75.0853 35 74.6753 35Z" fill="#231F20"></path>
      <path d="M80.8845 31.6661H83.8769V32.3641H80.8845V31.6661ZM80.9593 34.2199H84.3507V34.9343H80.1281V29.1862H84.2343V29.9006H80.9593V34.2199Z" fill="#231F20"></path>
      <path d="M87.3513 34.9343V29.1862H88.0329L91.8815 33.9078H91.5241V29.1862H92.3553V34.9343H91.6737L87.8251 30.2127H88.1825V34.9343H87.3513Z" fill="#231F20"></path>
      <path d="M98.3651 35C97.9216 35 97.513 34.9275 97.139 34.7824C96.7649 34.6374 96.4408 34.4321 96.1664 34.1666C95.8921 33.901 95.6773 33.5904 95.5223 33.2346C95.367 32.8787 95.2896 32.4872 95.2896 32.0602C95.2896 31.6333 95.367 31.2419 95.5223 30.886C95.6773 30.5302 95.8934 30.2196 96.1706 29.954C96.4477 29.6885 96.7733 29.4833 97.1473 29.3381C97.5214 29.1932 97.93 29.1205 98.3733 29.1205C98.8222 29.1205 99.2364 29.1958 99.616 29.3464C99.9955 29.497 100.318 29.72 100.584 30.0156L100.044 30.5329C99.8224 30.303 99.5731 30.132 99.296 30.0197C99.0189 29.9075 98.7224 29.8514 98.4066 29.8514C98.0796 29.8514 97.7762 29.9061 97.4964 30.0156C97.2165 30.1252 96.974 30.2784 96.7691 30.4754C96.564 30.6725 96.4046 30.9065 96.2911 31.1775C96.1775 31.4486 96.1207 31.7428 96.1207 32.0602C96.1207 32.3778 96.1775 32.672 96.2911 32.943C96.4046 33.214 96.564 33.448 96.7691 33.6451C96.974 33.8421 97.2165 33.9955 97.4964 34.1049C97.7762 34.2145 98.0796 34.2692 98.4066 34.2692C98.7224 34.2692 99.0189 34.2131 99.296 34.1008C99.5731 33.9887 99.8224 33.8149 100.044 33.5794L100.584 34.0967C100.318 34.3924 99.9955 34.6168 99.616 34.7701C99.2364 34.9234 98.8193 35 98.3651 35Z" fill="#231F20"></path>
      <path d="M104.74 34.9343V32.7336L104.932 33.2428L102.43 29.1862H103.319L105.422 32.6105H104.94L107.051 29.1862H107.874L105.381 33.2428L105.563 32.7336V34.9343H104.74Z" fill="#231F20"></path>
    </g>
  </g>
  <defs>
    <clipPath id="clip0_1_2">
      <rect width="119" height="35" fill="white"></rect>
    </clipPath>
  </defs>
</svg>
